<svg width="222" height="254" viewBox="0 0 222 254" fill="none" xmlns="http://www.w3.org/2000/svg">
<path d="M70.5322 116.103C75.8927 116.103 80.9798 116.103 86.3882 116.103C86.3882 117.437 86.3882 118.618 86.3882 119.799C86.3882 128.99 86.388 138.181 86.3887 147.372C86.3887 147.979 86.1954 148.677 86.445 149.171C86.8334 149.941 87.4049 150.767 88.14 151.178C88.4895 151.374 89.5414 150.808 90.0276 150.35C96.3047 144.43 102.541 138.471 108.775 132.51C109.416 131.897 109.974 131.204 110.672 130.437C111.347 130.943 111.859 131.254 112.28 131.653C118.664 137.716 125.02 143.807 131.436 149.84C132.101 150.465 133.104 150.765 133.95 151.216C134.498 150.172 135.511 149.133 135.524 148.082C135.647 138.459 135.596 128.834 135.596 119.209C135.596 118.27 135.596 117.331 135.596 116.25C160.228 116.25 184.679 116.25 209.408 116.25C209.408 117.226 209.408 118.152 209.408 119.078C209.408 161.912 209.409 204.746 209.408 247.579C209.408 252.028 207.333 254 202.653 254C141.522 254 80.39 254 19.2583 254C14.7728 254 12.577 251.956 12.5769 247.771C12.5755 204.85 12.576 161.93 12.576 119.009C12.576 118.152 12.576 117.295 12.576 116.103C31.8932 116.103 51.0761 116.103 70.5322 116.103Z" fill="white"/>
<path d="M73.266 52.0975C77.7154 52.0975 81.8913 52.0975 86.2268 52.0975C86.2268 72.2316 86.2268 92.2069 86.2268 112.46C85.2233 112.46 84.2521 112.46 83.2808 112.46C58.1365 112.46 32.9922 112.461 7.84781 112.46C2.53034 112.459 0.00149615 110.03 0.00114131 104.927C8.16916e-05 89.7531 -0.00103187 74.5797 0.00175659 59.4062C0.00267842 54.3908 2.41442 52.0976 7.67206 52.0976C29.4456 52.0974 51.2191 52.0975 73.266 52.0975Z" fill="white"/>
<path d="M200.114 52.0975C205.307 52.0975 210.226 52.0918 215.146 52.0994C218.966 52.1053 221.933 54.5537 221.95 58.1183C222.026 74.2452 222.003 90.3727 221.965 106.5C221.958 109.611 218.526 112.54 214.67 112.517C194.355 112.396 174.038 112.46 153.722 112.46C147.808 112.46 141.893 112.46 135.788 112.46C135.788 92.3835 135.788 72.4081 135.788 52.0975C157.102 52.0975 178.471 52.0975 200.114 52.0975Z" fill="white"/>
<path d="M128.642 142.527C122.718 136.898 116.935 131.399 110.912 125.671C104.131 132.131 97.4791 138.467 90.4491 145.163C90.4491 113.905 90.4491 83.1514 90.4491 52.2475C104.083 52.2475 117.776 52.2475 131.615 52.2475C131.615 83.0482 131.615 113.817 131.615 145.275C130.387 144.139 129.585 143.398 128.642 142.527Z" fill="white"/>
<path d="M189.049 6.44082C193.214 12.6876 196.418 19.1224 198.11 26.7023C173.915 21.6716 152.359 28.3567 131.139 39.3366C132.005 32.4212 129.245 27.2704 123.012 23.1665C128.562 19.359 133.61 15.7018 138.862 12.3353C148.419 6.21054 159.096 2.61864 170.35 0.666762C174.131 0.0108888 178.083 0.256119 181.955 0.0511318C183.398 -0.0253039 184.408 0.211897 185.217 1.63888C186.176 3.33236 187.656 4.75872 189.049 6.44082Z" fill="white"/>
<path d="M69.6051 30.085C58.225 26.3093 46.7375 24.3903 34.88 25.0821C31.3592 25.2875 27.8721 26.016 23.55 26.6192C24.9236 22.831 25.7375 19.1749 27.5137 16.0074C30.43 10.8068 33.9399 5.90459 37.2953 0.935145C37.6315 0.437166 38.614 0.135221 39.3197 0.0932743C46.191 -0.315202 52.9084 0.649991 59.5191 2.36133C71.8642 5.55714 82.8722 11.2059 92.7684 18.8756C94.5675 20.2699 96.3722 21.6579 98.4629 23.2715C93.0128 27.1916 89.9091 32.2314 90.8031 38.7571C83.7179 35.8736 76.7524 33.0389 69.6051 30.085Z" fill="white"/>
<path d="M195.067 29.7391C199.393 31.1144 199.551 31.3205 199.564 35.6725C199.577 39.8556 199.567 44.0388 199.567 48.3397C176.378 48.3397 153.938 48.3397 131.503 48.3397C131.119 43.066 130.148 43.9716 135.279 41.2639C143.839 36.7466 152.881 33.3719 162.35 31.0811C171.629 28.8364 181.032 27.827 190.595 29.1911C192.004 29.392 193.42 29.5481 195.067 29.7391Z" fill="white"/>
<path d="M41.5247 28.6809C53.3151 29.0201 64.2619 31.7724 74.826 35.9842C78.8972 37.6073 82.885 39.4454 86.8055 41.3789C91.8916 43.8871 90.7997 43.0157 90.5691 48.3203C68.1342 48.3203 45.6935 48.3203 22.9652 48.3203C22.9652 42.862 22.911 37.4316 23.0416 32.0053C23.0561 31.4052 24.0692 30.3854 24.7157 30.3101C30.2165 29.6686 35.7397 29.2008 41.5247 28.6809Z" fill="white"/>
<path d="M101.66 25.8494C107.547 25.6541 113.3 25.2642 118.99 25.6691C123.092 25.961 127.082 30.3206 127.32 34.2352C127.603 38.8791 127.387 43.5504 127.387 48.3307C116.448 48.3307 105.729 48.3307 94.3772 48.3307C94.6216 43.1852 94.5663 37.9605 95.2231 32.8183C95.644 29.5234 98.2565 27.3191 101.66 25.8494Z" fill="white"/>
</svg>
