<svg version="1.1" id="Layer_1" xmlns="http://www.w3.org/2000/svg" xmlns:xlink="http://www.w3.org/1999/xlink" x="0px" y="0px"
	 width="100%" viewBox="0 0 1080 796" enable-background="new 0 0 1080 796" xml:space="preserve">
<path fill="none" opacity="1.000000" stroke="none" 
	d="
M691.000000,797.000000 
	C462.166687,797.000000 233.833359,796.989197 5.500083,797.093384 
	C1.750971,797.095093 0.905222,796.249329 0.906689,792.500000 
	C1.009345,530.166748 1.009340,267.833405 0.906715,5.500125 
	C0.905248,1.751148 1.750605,0.905885 5.499937,0.906935 
	C362.499908,1.006878 719.499878,1.006874 1076.499878,0.906976 
	C1080.248657,0.905927 1081.094849,1.750355 1081.093384,5.499883 
	C1080.990723,267.833160 1080.990723,530.166504 1081.093262,792.499756 
	C1081.094727,796.248413 1080.250244,797.097595 1076.500122,797.094299 
	C948.166809,796.980957 819.833435,797.000000 691.000000,797.000000 
z"/>
<path fill="#21a6ff" opacity="1.000000" stroke="none" 
	d="
M499.661072,680.407104 
	C488.099701,640.191223 476.596802,600.378418 460.951965,561.928711 
	C442.277191,516.032471 418.924591,472.794220 387.611847,434.153625 
	C380.584229,425.481384 373.006958,417.283752 365.274536,409.219238 
	C362.289581,406.106110 359.625763,405.190430 355.294739,406.193481 
	C332.226624,411.535919 308.849609,415.073364 285.269043,417.273102 
	C262.018494,419.441986 239.001419,417.980377 216.301498,412.555786 
	C212.216309,411.579529 210.132050,412.652832 207.705765,415.865570 
	C182.705566,448.969299 157.638474,482.021454 135.933487,517.446106 
	C129.061752,528.661499 122.386429,540.000671 115.825562,551.400818 
	C113.910484,554.728455 111.388184,556.548523 107.706383,557.301331 
	C99.419464,558.995667 88.535423,554.117493 84.629082,546.688171 
	C82.337471,542.329773 82.929054,537.989380 85.163658,533.794434 
	C102.388763,501.457825 119.633873,469.133575 140.853745,439.145477 
	C148.839050,427.860596 156.730133,416.508972 164.714142,405.223175 
	C169.510590,398.443146 169.552292,398.476105 162.917313,393.676453 
	C158.851959,390.735626 154.968018,387.584564 152.073654,383.422150 
	C138.414886,363.779327 142.475418,342.601746 162.489655,328.775696 
	C173.453766,321.201538 185.663132,317.257812 198.865372,316.221313 
	C207.838913,315.516815 216.842285,314.756836 225.824280,315.492462 
	C229.982086,315.832947 232.485794,314.495148 235.025696,311.284973 
	C263.364899,275.467285 292.820526,240.586899 324.297363,207.477921 
	C348.060425,182.482712 371.961700,157.600815 397.909454,134.806946 
	C399.034943,133.818268 400.214996,132.890274 401.388641,131.957993 
	C408.835236,126.042778 416.259247,122.965553 425.888885,128.248184 
	C435.596588,133.573639 440.892914,141.053284 441.894684,151.851456 
	C442.163910,154.753311 440.501099,156.929977 438.851624,159.025040 
	C427.896271,172.940247 415.297150,185.352707 402.725739,197.739273 
	C362.579315,237.295395 324.137085,278.422791 287.422180,321.179932 
	C284.861176,324.162384 284.805542,325.172211 288.596558,326.804413 
	C316.983154,339.026337 344.188873,353.353394 368.408142,372.813538 
	C370.257172,374.299225 371.851929,374.155060 373.910797,373.428680 
	C425.550110,355.210785 470.549805,326.662018 508.447754,287.058167 
	C513.778015,281.487946 513.613647,281.476379 509.263519,274.911957 
	C495.033813,253.438904 484.376129,230.411118 480.764069,204.711121 
	C476.522156,174.529724 484.733948,147.654587 504.039093,124.195877 
	C506.410767,121.313965 506.560638,120.372589 502.817566,118.995628 
	C482.811371,111.636040 461.869965,110.289215 440.918518,109.242424 
	C401.178619,107.256927 363.177612,116.167679 325.750336,128.301483 
	C284.837311,141.565353 245.068634,157.655777 206.815628,177.342636 
	C184.882507,188.630508 163.614166,201.069794 143.833481,215.922256 
	C133.693405,223.535995 127.895111,223.298798 118.082893,215.206223 
	C110.818199,209.214691 106.681976,201.380493 105.117447,192.206680 
	C104.269707,187.235855 105.728973,183.000595 110.135925,180.047531 
	C176.778976,135.390244 248.364304,102.283401 327.434387,86.369720 
	C366.242126,78.559258 405.451630,76.320213 444.796936,78.332657 
	C473.707367,79.811371 501.969360,85.506561 527.627930,100.135971 
	C529.728088,101.333389 531.356567,101.438606 533.564331,100.229950 
	C563.410828,83.890343 595.823853,78.768883 629.360229,77.915245 
	C668.026917,76.931030 706.239380,80.188995 744.013306,88.471260 
	C796.078918,99.887100 845.239624,119.051521 892.075867,144.322708 
	C911.867249,155.001419 931.237427,166.383759 949.885742,179.001663 
	C955.596130,182.865494 957.376160,187.714264 955.983398,193.977814 
	C953.844238,203.598587 948.981689,211.568069 940.677490,217.138489 
	C931.670715,223.180084 927.265320,223.138977 918.558655,216.636627 
	C894.446228,198.628830 868.446716,183.781403 841.396973,170.760483 
	C794.037292,147.963043 745.207520,129.065582 694.036804,116.649147 
	C653.395447,106.787628 612.552673,106.623558 571.657837,115.051308 
	C566.966797,116.018036 562.476990,117.936386 557.862305,119.307182 
	C554.796570,120.217857 554.911438,121.335030 556.888733,123.618736 
	C567.646301,136.043228 574.874573,150.364609 578.904358,166.260880 
	C584.366943,187.808548 581.731995,208.834976 574.686523,229.603165 
	C568.863098,246.768997 560.677246,262.706726 550.212158,277.453247 
	C548.160461,280.344269 548.260803,282.064880 550.654724,284.598450 
	C573.809265,309.104248 599.688293,330.155701 629.097229,346.734497 
	C647.691101,357.216492 666.917969,366.344940 687.146362,373.284515 
	C689.329590,374.033508 691.029907,374.417969 693.084351,372.765717 
	C717.297852,353.292053 744.549133,339.051331 772.869812,326.669647 
	C774.073792,326.143311 775.213257,325.469391 776.807922,324.644196 
	C767.783569,314.285583 758.896667,304.190826 750.124817,293.997070 
	C716.935303,255.427353 680.445618,220.012589 644.874512,183.717468 
	C638.346130,177.056244 631.997620,170.201462 625.857056,163.181595 
	C617.350464,153.456924 618.407898,141.652115 628.230774,133.097397 
	C633.143250,128.819183 639.187317,126.895432 645.202087,124.898354 
	C647.030640,124.291199 648.418640,125.369095 649.910156,126.028526 
	C661.153442,130.999420 669.520325,139.750305 678.159485,148.009338 
	C731.601501,199.099884 781.103149,253.789032 826.906921,311.818542 
	C829.105408,314.603851 831.272888,315.594177 834.836121,315.516113 
	C851.506958,315.150909 868.252747,314.914886 884.169739,321.027100 
	C895.230286,325.274353 905.003601,331.465118 911.582397,341.748840 
	C921.961365,357.972870 918.222900,374.039093 905.151245,388.076172 
	C902.238953,391.203583 898.562378,393.707733 894.959167,396.074951 
	C892.143188,397.925018 892.291382,399.295288 894.157349,401.825714 
	C910.473389,423.952087 926.173401,446.510345 940.666565,469.880737 
	C952.520142,488.994690 962.940369,508.928314 973.529968,528.748047 
	C976.927368,535.106750 976.351318,542.982178 974.204590,549.178162 
	C972.224548,554.893127 965.182678,557.279419 958.753784,557.682007 
	C952.749817,558.058044 948.071106,556.145447 944.805664,550.233459 
	C918.228821,502.117767 885.916382,457.874298 852.521790,414.373047 
	C851.057861,412.466034 849.693848,411.508911 847.112854,412.164246 
	C811.125549,421.301666 775.098389,418.663177 739.030457,412.550934 
	C727.854797,410.657043 716.677124,408.785980 705.665466,406.123474 
	C701.819946,405.193665 699.359436,405.983398 696.540649,408.816650 
	C666.026123,439.487549 642.643127,475.149261 622.738281,513.301880 
	C598.818176,559.150635 582.810730,607.973083 568.387085,657.397583 
	C563.632812,673.688782 558.948669,689.998474 555.176575,706.555054 
	C554.660950,708.817871 553.950989,711.055481 553.118469,713.223022 
	C551.380188,717.749268 548.055786,720.039673 543.136780,720.014526 
	C535.304016,719.974487 527.470886,720.013428 519.637939,720.001282 
	C512.463806,719.990112 509.379120,717.865723 507.431427,710.764038 
	C504.704926,700.822632 502.317047,690.788269 499.661072,680.407104 
z"/>
<path fill="#ffffff" opacity="1.000000" stroke="none" 
	d="
M528.055786,609.829346 
	C510.066742,562.845764 488.075897,518.287720 461.029205,476.274628 
	C444.288879,450.271027 425.146118,426.182190 403.222809,404.345032 
	C400.166016,401.300232 396.771942,398.594025 392.841034,395.118408 
	C395.705048,393.759857 397.240967,392.967499 398.825623,392.288910 
	C447.596161,371.403198 491.492249,343.295441 528.293152,304.732605 
	C530.438293,302.484772 531.426086,303.020813 533.278381,304.954376 
	C569.907410,343.190125 613.496887,371.171631 661.908752,392.010345 
	C667.878845,394.580200 667.973267,394.624481 663.501404,398.924377 
	C621.766785,439.054108 591.125244,487.019806 564.913757,538.147461 
	C553.509399,560.392578 544.066223,583.488464 534.470032,606.532471 
	C533.264160,609.428223 534.487915,613.627441 530.251953,615.333435 
	C529.541748,613.564697 528.862915,611.874084 528.055786,609.829346 
z"/>
<path fill="#ffffff" opacity="1.000000" stroke="none" 
	d="
M540.928955,145.088593 
	C556.008728,164.250153 557.524780,185.788040 553.467590,208.346756 
	C550.326477,225.812164 542.895203,241.509506 533.113525,256.172699 
	C532.029724,257.797302 530.953064,259.821686 528.931519,256.818512 
	C510.795197,229.875793 501.014313,201.042648 508.704926,168.212982 
	C511.622284,155.759552 518.615723,145.880035 527.961365,137.419556 
	C529.950134,135.619171 531.418091,135.340469 533.315491,137.395691 
	C535.680481,139.957489 538.216431,142.361572 540.928955,145.088593 
z"/>
<path fill="#ffffff" opacity="1.000000" stroke="none" 
	d="
M308.627014,365.401672 
	C318.888428,371.240112 328.833954,376.884430 339.747559,383.078156 
	C303.026733,391.410492 267.315033,393.852509 230.485809,387.664185 
	C238.538086,378.088104 246.217422,368.952545 253.901337,359.820831 
	C254.972839,358.547424 256.072937,357.298157 257.149292,356.028809 
	C264.630402,347.206207 264.633148,347.194702 275.449127,350.846619 
	C286.816681,354.684753 297.811340,359.381287 308.627014,365.401672 
z"/>
<path fill="#ffffff" opacity="1.000000" stroke="none" 
	d="
M744.451599,387.456116 
	C737.031372,386.134277 730.039490,384.893372 723.028259,383.649048 
	C723.031433,381.607849 724.706299,381.541565 725.715698,380.934082 
	C746.692993,368.308929 767.861938,356.100159 791.507629,348.905884 
	C795.322998,347.745087 797.665039,347.932587 800.385559,351.309570 
	C809.052368,362.067627 818.189453,372.446167 827.086182,383.020660 
	C828.227844,384.377533 829.768311,385.531464 830.226501,387.870026 
	C801.682800,392.293304 773.283203,392.366547 744.451599,387.456116 
z"/>
<path fill="#ffffff" opacity="1.000000" stroke="none" 
	d="
M183.931793,342.947876 
	C196.011673,338.852783 207.724960,334.869507 219.438232,330.886261 
	C219.580490,331.150421 219.722748,331.414581 219.865005,331.678741 
	C215.950882,336.391174 211.959274,341.041809 208.138763,345.828949 
	C200.268600,355.690369 192.437134,365.583954 184.715729,375.561768 
	C183.076401,377.680176 181.713684,378.180206 179.476791,376.521454 
	C177.619949,375.144531 175.424713,374.229431 173.535934,372.889069 
	C164.264618,366.310028 164.194992,354.965332 173.403397,348.256500 
	C176.497452,346.002319 179.978790,344.403412 183.931793,342.947876 
z"/>
<path fill="#ffffff" opacity="1.000000" stroke="none" 
	d="
M844.604370,331.879639 
	C855.979065,335.689453 867.033875,339.324738 878.016113,343.167450 
	C880.972168,344.201752 883.850525,345.634827 886.519287,347.282257 
	C897.397217,353.997223 897.678406,366.127472 887.228271,373.353882 
	C879.272278,378.855560 879.033630,379.032745 873.404236,371.451050 
	C863.285645,357.823303 852.522705,344.722290 841.531616,331.753143 
	C842.648438,330.638763 843.419983,331.734406 844.604370,331.879639 
z"/>
</svg>