<svg version="1.1" id="Layer_1" xmlns="http://www.w3.org/2000/svg" xmlns:xlink="http://www.w3.org/1999/xlink" x="0px" y="0px"
	 width="100%" viewBox="0 0 128 128" enable-background="new 0 0 128 128" xml:space="preserve">
<path fill="none" opacity="1.000000" stroke="none" 
	d="
M81.000000,129.000000 
	C55.000000,129.000000 29.499826,128.958511 4.000274,129.065323 
	C1.499425,129.075790 0.930376,128.499771 0.935936,125.999855 
	C1.026385,85.333397 1.026381,44.666611 0.935937,4.000143 
	C0.930377,1.500242 1.500242,0.930377 4.000143,0.935937 
	C44.666611,1.026383 85.333397,1.026383 125.999855,0.935936 
	C128.499771,0.930377 129.069626,1.500242 129.064072,4.000143 
	C128.973618,44.666611 128.973618,85.333397 129.064072,125.999855 
	C129.069626,128.499771 128.502563,129.090149 125.999382,129.067169 
	C111.167297,128.931030 96.333336,129.000000 81.000000,129.000000 
z"/>
<path fill="#21a6ff" opacity="1.000000" stroke="none" 
	d="
M31.000011,25.000000 
	C60.981094,25.000000 90.462204,25.015785 119.943230,24.975058 
	C122.822250,24.971079 125.163429,24.867537 125.102661,28.979872 
	C125.050621,32.501442 123.480728,33.061241 120.486000,33.044540 
	C103.830536,32.951656 87.174286,32.999992 70.518303,33.000000 
	C50.364567,33.000004 30.210775,32.977425 10.057151,33.025394 
	C7.178323,33.032246 4.891416,33.128002 4.889257,29.022068 
	C4.887124,24.962624 7.086254,24.928942 10.013495,24.969685 
	C16.841154,25.064709 23.671036,25.000002 31.000011,25.000000 
z"/>
<path fill="#21a6ff" opacity="1.000000" stroke="none" 
	d="
M61.000000,69.000000 
	C43.677452,69.000000 26.854799,68.970612 10.032448,69.028069 
	C7.127500,69.037987 4.888962,69.077065 4.889228,64.997261 
	C4.889494,60.911686 7.139103,60.970318 10.037848,60.973511 
	C46.680981,61.013813 83.324188,61.014095 119.967316,60.973030 
	C122.871498,60.969776 125.111008,60.922310 125.110771,65.002441 
	C125.110527,69.087715 122.861763,69.035172 119.962402,69.027351 
	C100.475052,68.974815 80.987495,69.000000 61.000000,69.000000 
z"/>
<path fill="#21a6ff" opacity="1.000000" stroke="none" 
	d="
M64.000000,97.000000 
	C82.988144,97.000000 101.476357,97.026642 119.964340,96.972389 
	C122.865791,96.963875 125.110718,96.916290 125.110771,100.999504 
	C125.110817,105.081680 122.867516,105.030022 119.965378,105.026794 
	C83.322258,104.986015 46.679066,104.986084 10.035950,105.026665 
	C7.135218,105.029877 4.889309,105.084412 4.889228,101.000839 
	C4.889146,96.919037 7.131438,96.963165 10.034333,96.972206 
	C27.856079,97.027695 45.678082,97.000000 64.000000,97.000000 
z"/>
</svg>