<svg version="1.1" id="Layer_1" xmlns="http://www.w3.org/2000/svg" xmlns:xlink="http://www.w3.org/1999/xlink" x="0px" y="0px"
	 width="100%" viewBox="0 0 128 128" enable-background="new 0 0 128 128" xml:space="preserve">
<path fill="none" opacity="1.000000" stroke="none" 
	d="
M129.000000,20.000000 
	C129.000000,56.287338 129.000000,92.574677 129.000000,128.931000 
	C86.433434,128.931000 43.866734,128.931000 1.000000,128.931000 
	C1.000000,92.979660 1.000000,56.958488 1.306779,20.165813 
	C19.226381,27.715204 37.650433,32.682365 57.228298,33.095642 
	C58.493549,33.122353 60.667282,34.379677 60.806053,35.306068 
	C61.244091,38.230301 61.393940,41.396049 60.652779,44.203705 
	C60.344173,45.372761 57.414928,45.731411 55.839211,46.717293 
	C54.199123,47.743462 52.563663,48.906864 51.265629,50.321686 
	C48.885235,52.916252 46.979866,55.398247 42.636070,55.406242 
	C40.023441,55.411057 37.092583,57.798588 34.862053,59.751789 
	C25.258062,68.161644 27.141918,81.064072 32.788330,92.281807 
	C37.497738,101.638000 45.127167,108.200409 53.955379,113.236748 
	C57.996414,115.542091 61.906166,119.363869 67.646881,117.097649 
	C83.488907,110.843803 95.245041,100.630386 100.499550,83.998589 
	C103.979935,72.982315 100.828232,62.482903 93.339180,58.322227 
	C86.953125,54.774345 80.498589,51.710854 74.401031,47.406940 
	C69.835030,44.184067 68.699356,41.687805 68.904274,36.913311 
	C69.038620,33.782955 70.218323,32.979378 73.131424,32.950253 
	C88.189552,32.799709 102.673912,29.754345 116.649445,24.121719 
	C120.667366,22.502357 124.877823,21.360689 129.000000,20.000000 
z"/>
<path fill="#000000" opacity="1.000000" stroke="none" 
	d="
M129.000000,19.562500 
	C124.877823,21.360689 120.667366,22.502357 116.649445,24.121719 
	C102.673912,29.754345 88.189552,32.799709 73.131424,32.950253 
	C70.218323,32.979378 69.038620,33.782955 68.904274,36.913311 
	C68.699356,41.687805 69.835030,44.184067 74.401031,47.406940 
	C80.498589,51.710854 86.953125,54.774345 93.339180,58.322227 
	C100.828232,62.482903 103.979935,72.982315 100.499550,83.998589 
	C95.245041,100.630386 83.488907,110.843803 67.646881,117.097649 
	C61.906166,119.363869 57.996414,115.542091 53.955379,113.236748 
	C45.127167,108.200409 37.497738,101.638000 32.788330,92.281807 
	C27.141918,81.064072 25.258062,68.161644 34.862053,59.751789 
	C37.092583,57.798588 40.023441,55.411057 42.636070,55.406242 
	C46.979866,55.398247 48.885235,52.916252 51.265629,50.321686 
	C52.563663,48.906864 54.199123,47.743462 55.839211,46.717293 
	C57.414928,45.731411 60.344173,45.372761 60.652779,44.203705 
	C61.393940,41.396049 61.244091,38.230301 60.806053,35.306068 
	C60.667282,34.379677 58.493549,33.122353 57.228298,33.095642 
	C37.650433,32.682365 19.226381,27.715204 1.306779,19.697155 
	C1.000000,17.629442 1.000000,15.258885 1.340261,12.768456 
	C3.839889,12.769369 6.228776,12.325990 8.123656,13.096887 
	C30.859194,22.346426 54.156586,27.011934 78.887428,24.155806 
	C92.623993,22.569389 105.758430,19.460154 118.514717,14.254380 
	C121.760406,12.929832 125.190132,10.671490 129.000000,13.000000 
	C129.000000,15.041667 129.000000,17.083334 129.000000,19.562500 
M42.606171,64.929512 
	C37.388645,68.688889 35.828571,73.914764 37.613167,80.184174 
	C41.506771,93.862679 50.803185,102.445213 63.387356,108.012459 
	C64.162308,108.355286 65.257576,108.781120 65.901939,108.493065 
	C79.248528,102.526680 89.227119,93.333694 92.906609,78.713013 
	C94.556664,72.156403 91.205391,66.333580 85.187027,63.691051 
	C80.570564,61.664059 73.388176,64.253410 69.982140,69.172630 
	C66.780907,73.796059 63.200558,73.855827 60.035419,69.338676 
	C55.917084,63.461163 49.617123,61.595066 42.606171,64.929512 
M71.508339,56.939137 
	C69.892006,51.876034 63.164757,51.580723 58.143917,56.275188 
	C60.482716,57.856598 62.838890,59.449753 65.017952,60.923153 
	C67.017944,59.558624 68.875244,58.291451 71.508339,56.939137 
z"/>
<path fill="none" opacity="1.000000" stroke="none" 
	d="
M129.000000,12.520824 
	C125.190132,10.671490 121.760406,12.929832 118.514717,14.254380 
	C105.758430,19.460154 92.623993,22.569389 78.887428,24.155806 
	C54.156586,27.011934 30.859194,22.346426 8.123656,13.096887 
	C6.228776,12.325990 3.839889,12.769369 1.340261,12.324291 
	C1.000000,8.344501 1.000000,4.689002 1.000005,1.035533 
	C43.666683,1.037564 86.333351,1.037564 129.000000,1.037564 
	C129.000000,4.730635 129.000000,8.386142 129.000000,12.520824 
z"/>
<path fill="none" opacity="1.000000" stroke="none" 
	d="
M42.871819,64.631439 
	C49.617123,61.595066 55.917084,63.461163 60.035419,69.338676 
	C63.200558,73.855827 66.780907,73.796059 69.982140,69.172630 
	C73.388176,64.253410 80.570564,61.664059 85.187027,63.691051 
	C91.205391,66.333580 94.556664,72.156403 92.906609,78.713013 
	C89.227119,93.333694 79.248528,102.526680 65.901939,108.493065 
	C65.257576,108.781120 64.162308,108.355286 63.387356,108.012459 
	C50.803185,102.445213 41.506771,93.862679 37.613167,80.184174 
	C35.828571,73.914764 37.388645,68.688889 42.871819,64.631439 
z"/>
<path fill="none" opacity="1.000000" stroke="none" 
	d="
M71.120438,56.981705 
	C68.875244,58.291451 67.017944,59.558624 65.017952,60.923153 
	C62.838890,59.449753 60.482716,57.856598 58.143917,56.275188 
	C63.164757,51.580723 69.892006,51.876034 71.120438,56.981705 
z"/>
</svg>