<svg version="1.1" id="Layer_1" xmlns="http://www.w3.org/2000/svg" xmlns:xlink="http://www.w3.org/1999/xlink" x="0px" y="0px"
	 width="100%" viewBox="0 0 128 128" enable-background="new 0 0 128 128" xml:space="preserve">
<path fill="#ffffff" opacity="1.000000" stroke="none" 
	d="
M0.999999,122.000000 
	C1.000000,84.312439 1.000000,46.624878 1.292359,8.756260 
	C3.723145,6.050137 5.861572,3.525068 8.000000,1.000000 
	C45.687561,1.000000 83.375122,1.000000 121.243744,1.292359 
	C123.949867,3.723146 126.474930,5.861573 129.000000,8.000000 
	C129.000000,45.687561 129.000000,83.375122 128.707642,121.243744 
	C126.276848,123.949867 124.138420,126.474937 122.000000,129.000000 
	C84.312439,129.000000 46.624878,129.000000 8.756258,128.707642 
	C6.050134,126.276848 3.525066,124.138428 0.999999,122.000000 
M55.495724,119.000000 
	C60.262470,119.000000 65.029221,119.000000 69.715973,119.000000 
	C69.715973,105.357071 69.715973,92.287521 69.715973,78.825233 
	C64.693039,78.825233 59.945198,78.825233 55.287769,78.825233 
	C55.287769,73.018494 55.287769,67.613625 55.287769,61.817986 
	C60.315071,61.817986 65.063484,61.817986 70.012131,61.817986 
	C70.095085,52.067059 68.529396,42.454983 76.540924,34.799385 
	C84.711479,26.991821 94.369095,29.433365 103.701797,29.014547 
	C103.701797,34.676701 103.701797,39.749950 103.701797,44.799347 
	C85.928345,45.741867 84.001831,47.683098 86.634499,62.119278 
	C92.343658,62.119278 98.119980,62.119278 104.132523,62.119278 
	C103.381927,66.800888 102.420815,71.090889 102.094124,75.428673 
	C101.874107,78.350143 100.672829,79.116867 98.038055,79.032570 
	C94.103867,78.906685 90.162659,78.999893 86.271866,78.999893 
	C86.271866,92.616699 86.271866,105.685509 86.271866,119.000000 
	C94.179100,119.000000 101.816978,118.994904 109.454842,119.001427 
	C117.138771,119.007988 118.988052,117.041809 118.992531,109.629395 
	C119.010574,79.808067 119.022224,49.986698 118.983971,20.165407 
	C118.974709,12.941930 117.146210,11.022415 109.749397,11.014023 
	C79.928093,10.980187 50.106716,10.981696 20.285408,11.012887 
	C12.840372,11.020674 11.027428,12.949662 11.017488,20.130600 
	C10.975983,50.118481 10.951635,80.106590 11.035932,110.094292 
	C11.055618,117.097504 12.760984,118.910431 20.010798,118.973389 
	C31.505308,119.073212 43.001320,119.000000 55.495724,119.000000 
z"/>
</svg>