<svg version="1.1" id="Layer_1" xmlns="http://www.w3.org/2000/svg" xmlns:xlink="http://www.w3.org/1999/xlink" x="0px" y="0px"
	 width="100%" viewBox="0 0 128 128" enable-background="new 0 0 128 128" xml:space="preserve">
<path fill="#FFffff" opacity="1.000000" stroke="none" 
	d="
M129.000000,22.000000 
	C129.000000,50.354229 129.000000,78.708458 128.734985,107.192566 
	C128.207321,107.527084 127.811134,107.676880 127.701317,107.944275 
	C123.952049,117.073555 118.011734,123.985115 108.401024,127.283455 
	C108.105759,127.384789 108.126556,128.407074 108.000000,129.000000 
	C79.645775,129.000000 51.291542,129.000000 22.807438,128.734985 
	C22.472925,128.207306 22.323124,127.811127 22.055719,127.701317 
	C12.926435,123.952057 6.014877,118.011734 2.716531,108.401024 
	C2.615198,108.105759 1.592921,108.126556 1.000000,108.000000 
	C1.000000,79.645775 1.000000,51.291542 1.267375,22.807562 
	C1.911014,22.361372 2.505669,22.114349 2.631539,21.718327 
	C5.629132,12.287114 12.100657,6.319297 21.167452,2.837090 
	C21.614248,2.665493 21.730064,1.632101 22.000000,1.000000 
	C50.354229,1.000000 78.708458,1.000000 107.192444,1.267272 
	C107.524338,1.792920 107.673920,2.190505 107.936226,2.289550 
	C117.302406,5.826118 123.874352,12.128904 127.308517,21.624102 
	C127.413818,21.915237 128.415970,21.882006 129.000000,22.000000 
M107.895317,114.582344 
	C115.088120,109.825050 117.990433,102.895531 117.995880,94.528976 
	C118.008690,74.865669 118.004234,55.202351 117.998581,35.539036 
	C117.994446,21.146681 108.807137,12.004701 94.346924,12.001174 
	C75.016884,11.996459 55.686848,11.999046 36.356812,12.000306 
	C20.821795,12.001318 12.001418,20.813757 12.000321,36.335045 
	C11.998980,55.331806 12.271976,74.333702 11.913704,93.323700 
	C11.628538,108.438774 21.615734,118.337845 36.518478,118.080475 
	C55.676163,117.749626 74.847023,118.185257 94.004936,117.861023 
	C98.423935,117.786232 102.813385,115.966194 107.895317,114.582344 
z"/>

<path fill="#ffffff" opacity="1.000000" stroke="none" 
	d="
M35.218224,78.493820 
	C32.291542,69.632370 31.904356,61.188961 34.953346,52.603695 
	C38.895115,41.504559 50.524902,33.217175 62.299576,32.933056 
	C70.946419,32.724411 78.733231,34.173969 85.751854,39.831989 
	C92.136688,44.979095 95.903618,51.547092 96.815552,59.249973 
	C97.928505,68.650970 96.850471,77.748276 90.216530,85.709053 
	C84.962898,92.013458 78.502556,95.828522 70.822182,96.820610 
	C61.216511,98.061409 51.561043,97.112328 44.063232,89.911888 
	C40.716064,86.697464 38.244438,82.571350 35.218224,78.493820 
M77.591400,48.915817 
	C66.236183,39.308361 50.332306,45.330952 45.523830,58.001713 
	C40.075073,72.359657 52.220375,86.761200 66.317741,85.801254 
	C75.218002,85.195206 81.876137,79.899391 84.801476,71.204308 
	C87.721489,62.525047 84.519722,55.267986 77.591400,48.915817 
z"/>
<path fill="#ffffff" opacity="1.000000" stroke="none" 
	d="
M92.203133,34.492565 
	C89.983994,30.296579 90.666359,26.137226 93.840698,24.115700 
	C96.377518,22.500170 100.629585,22.381174 103.735344,23.151041 
	C107.856255,24.172546 108.194550,28.258795 108.001457,32.055588 
	C107.796654,36.082699 104.697891,37.483658 101.702499,38.616596 
	C97.640991,40.152767 94.884377,37.602024 92.203133,34.492565 
z"/>
</svg>