<svg version="1.1" id="Layer_1" xmlns="http://www.w3.org/2000/svg" xmlns:xlink="http://www.w3.org/1999/xlink" x="0px" y="0px"
	 width="100%" viewBox="0 0 128 128" enable-background="new 0 0 128 128" xml:space="preserve">
<path fill="#FFFFFF" opacity="1.000000" stroke="none" 
	d="
M0.999999,122.000000 
	C1.000000,84.312439 1.000000,46.624878 1.292359,8.756260 
	C3.723145,6.050137 5.861572,3.525068 8.000000,1.000000 
	C45.687561,1.000000 83.375122,1.000000 121.243744,1.292359 
	C123.949867,3.723146 126.474930,5.861573 129.000000,8.000000 
	C129.000000,45.687561 129.000000,83.375122 128.707642,121.243744 
	C126.276848,123.949867 124.138420,126.474937 122.000000,129.000000 
	C84.312439,129.000000 46.624878,129.000000 8.756258,128.707642 
	C6.050134,126.276848 3.525066,124.138428 0.999999,122.000000 
M118.722481,113.803085 
	C118.814987,112.482880 118.987572,111.162712 118.988251,109.842461 
	C119.003548,80.014503 119.011330,50.186527 118.991989,20.358576 
	C118.987190,12.956206 117.137726,10.996323 109.439133,10.997758 
	C79.777802,11.003288 50.116478,10.995298 20.455149,11.003262 
	C12.909459,11.005288 11.004421,12.902121 11.002724,20.464285 
	C10.996067,50.125610 11.002919,79.786942 10.998009,109.448265 
	C10.996736,117.138329 12.957438,118.982674 20.367716,118.992409 
	C38.197811,119.015831 56.027954,119.000000 73.858078,119.000000 
	C86.022552,119.000000 98.188309,119.096191 110.350655,118.935173 
	C113.558289,118.892708 117.584923,119.459740 118.722481,113.803085 
z"/>
<path fill="none" opacity="1.000000" stroke="none" 
	d="
M7.502095,1.000000 
	C5.861572,3.525068 3.723145,6.050137 1.292359,8.287602 
	C1.000000,5.752362 1.000000,3.504725 1.000000,1.000000 
	C2.998142,1.000000 5.001166,1.000000 7.502095,1.000000 
z"/>
<path fill="none" opacity="1.000000" stroke="none" 
	d="
M129.000000,7.502095 
	C126.474930,5.861573 123.949867,3.723146 121.712402,1.292359 
	C124.247643,1.000000 126.495277,1.000000 129.000000,1.000000 
	C129.000000,2.998142 129.000000,5.001166 129.000000,7.502095 
z"/>
<path fill="none" opacity="1.000000" stroke="none" 
	d="
M0.999999,122.497902 
	C3.525066,124.138428 6.050134,126.276848 8.287601,128.707642 
	C5.752361,129.000000 3.504722,129.000000 1.000000,129.000000 
	C1.000000,127.001854 1.000000,124.998833 0.999999,122.497902 
z"/>
<path fill="none" opacity="1.000000" stroke="none" 
	d="
M122.497902,129.000000 
	C124.138420,126.474937 126.276848,123.949867 128.707642,121.712402 
	C129.000000,124.247643 129.000000,126.495277 129.000000,129.000000 
	C127.001854,129.000000 124.998833,129.000000 122.497902,129.000000 
z"/>
<path fill="none" opacity="1.000000" stroke="none" 
	d="
M118.406998,114.114716 
	C117.584923,119.459740 113.558289,118.892708 110.350655,118.935173 
	C98.188309,119.096191 86.022552,119.000000 73.858078,119.000000 
	C56.027954,119.000000 38.197811,119.015831 20.367716,118.992409 
	C12.957438,118.982674 10.996736,117.138329 10.998009,109.448265 
	C11.002919,79.786942 10.996067,50.125610 11.002724,20.464285 
	C11.004421,12.902121 12.909459,11.005288 20.455149,11.003262 
	C50.116478,10.995298 79.777802,11.003288 109.439133,10.997758 
	C117.137726,10.996323 118.987190,12.956206 118.991989,20.358576 
	C119.011330,50.186527 119.003548,80.014503 118.988251,109.842461 
	C118.987572,111.162712 118.814987,112.482880 118.406998,114.114716 
M52.003876,105.285477 
	C52.766659,105.856415 53.514378,106.896477 54.294693,106.921532 
	C59.070927,107.074928 63.854546,106.998291 68.497330,106.998291 
	C69.011429,96.057014 69.505669,85.536720 70.000084,75.016434 
	C70.260887,69.466911 73.449203,65.482056 78.013199,65.000931 
	C84.216705,64.346962 86.497200,66.064720 87.982468,72.849594 
	C88.532532,75.362343 88.920494,77.961464 88.954964,80.526932 
	C89.072594,89.279854 89.000000,98.035324 89.000000,106.718117 
	C95.310127,106.718117 101.043732,106.718117 107.000000,106.718117 
	C107.000000,95.142647 107.176323,83.843521 106.907677,72.554993 
	C106.809021,68.409828 105.945541,64.216270 104.914810,60.176476 
	C103.578049,54.937168 100.030197,51.297527 94.764748,50.078194 
	C85.480133,47.928139 76.343369,47.346470 69.133163,56.324802 
	C69.012054,53.725914 68.930733,51.980888 68.849876,50.245872 
	C63.127964,50.245872 57.711422,50.245872 52.000275,50.245872 
	C52.000275,68.433037 52.000275,86.375908 52.003876,105.285477 
M23.000017,53.651733 
	C23.000017,71.399719 23.000017,89.147713 23.000017,106.656319 
	C29.760584,106.656319 35.837769,106.656319 41.654652,106.656319 
	C41.654652,87.572754 41.654652,68.833977 41.654652,50.000240 
	C36.149723,50.000240 30.982826,49.861824 25.835995,50.121346 
	C24.850241,50.171047 23.943478,51.787292 23.000017,53.651733 
M33.344406,22.000002 
	C30.751192,22.657953 27.748222,22.702402 25.651068,24.103077 
	C21.437635,26.917194 20.891481,32.597191 23.219530,37.702194 
	C25.381992,42.444088 31.678635,43.710537 35.188610,42.887501 
	C40.458202,41.651867 43.345978,36.975002 42.999817,30.651657 
	C42.746960,26.032751 39.585548,22.925661 33.344406,22.000002 
z"/>
<path fill="#FFFFFF" opacity="1.000000" stroke="none" 
	d="
M52.002075,104.802132 
	C52.000275,86.375908 52.000275,68.433037 52.000275,50.245872 
	C57.711422,50.245872 63.127964,50.245872 68.849876,50.245872 
	C68.930733,51.980888 69.012054,53.725914 69.133163,56.324802 
	C76.343369,47.346470 85.480133,47.928139 94.764748,50.078194 
	C100.030197,51.297527 103.578049,54.937168 104.914810,60.176476 
	C105.945541,64.216270 106.809021,68.409828 106.907677,72.554993 
	C107.176323,83.843521 107.000000,95.142647 107.000000,106.718117 
	C101.043732,106.718117 95.310127,106.718117 89.000000,106.718117 
	C89.000000,98.035324 89.072594,89.279854 88.954964,80.526932 
	C88.920494,77.961464 88.532532,75.362343 87.982468,72.849594 
	C86.497200,66.064720 84.216705,64.346962 78.013199,65.000931 
	C73.449203,65.482056 70.260887,69.466911 70.000084,75.016434 
	C69.505669,85.536720 69.011429,96.057014 68.497330,106.998291 
	C63.854546,106.998291 59.070927,107.074928 54.294693,106.921532 
	C53.514378,106.896477 52.766659,105.856415 52.002075,104.802132 
z"/>
<path fill="#FFFFFF" opacity="1.000000" stroke="none" 
	d="
M23.000145,53.166275 
	C23.943478,51.787292 24.850241,50.171047 25.835995,50.121346 
	C30.982826,49.861824 36.149723,50.000240 41.654652,50.000240 
	C41.654652,68.833977 41.654652,87.572754 41.654652,106.656319 
	C35.837769,106.656319 29.760584,106.656319 23.000017,106.656319 
	C23.000017,89.147713 23.000017,71.399719 23.000145,53.166275 
z"/>
<path fill="#FFFFFF" opacity="1.000000" stroke="none" 
	d="
M33.770676,22.000031 
	C39.585548,22.925661 42.746960,26.032751 42.999817,30.651657 
	C43.345978,36.975002 40.458202,41.651867 35.188610,42.887501 
	C31.678635,43.710537 25.381992,42.444088 23.219530,37.702194 
	C20.891481,32.597191 21.437635,26.917194 25.651068,24.103077 
	C27.748222,22.702402 30.751192,22.657953 33.770676,22.000031 
z"/>
</svg>