<svg version="1.1" id="Layer_1" xmlns="http://www.w3.org/2000/svg" xmlns:xlink="http://www.w3.org/1999/xlink" x="0px" y="0px"
	 width="100%" viewBox="0 0 128 128" enable-background="new 0 0 128 128" xml:space="preserve">
<path fill="none" opacity="1.000000" stroke="none" 
	d="
M0.999998,123.000000 
	C1.000000,84.645775 1.000000,46.291542 1.281695,7.754529 
	C3.375594,5.381163 5.187797,3.190582 7.000000,1.000000 
	C45.354229,1.000000 83.708458,1.000000 122.245468,1.281699 
	C124.618835,3.375599 126.809418,5.187800 129.000000,7.000001 
	C129.000000,45.354229 129.000000,83.708458 128.718292,122.245468 
	C126.624397,124.618835 124.812202,126.809418 123.000000,129.000000 
	C84.645775,129.000000 46.291542,129.000000 7.754529,128.718292 
	C5.381161,126.624405 3.190579,124.812202 0.999998,123.000000 
M52.497784,28.998297 
	C51.427879,27.572096 50.519119,25.976809 49.246159,24.763676 
	C47.748249,23.336159 45.992500,21.275015 44.247562,21.170206 
	C37.351368,20.755997 30.415627,21.000168 22.671883,21.000168 
	C34.148296,37.781376 45.207794,53.952957 56.213394,70.045731 
	C45.000362,83.092407 34.046329,95.837738 23.154274,108.510948 
	C28.106228,110.522568 30.490685,107.325821 32.953457,104.349678 
	C33.668022,103.486160 34.187157,102.458473 34.917542,101.610870 
	C42.801662,92.461586 50.710110,83.333252 58.791092,73.992065 
	C59.282265,74.577690 59.873974,75.178970 60.346714,75.862518 
	C67.232574,85.818954 74.048119,95.824883 81.038025,105.707535 
	C82.027138,107.105980 83.806694,108.783051 85.289360,108.852180 
	C92.351288,109.181442 99.437042,108.999573 106.635941,108.999573 
	C106.343147,108.029037 106.299545,107.346214 105.967262,106.861168 
	C95.480270,91.552948 84.916748,76.296577 74.553802,60.905121 
	C73.790382,59.771263 73.763733,57.169827 74.552940,56.129108 
	C78.103493,51.447033 82.075584,47.084915 85.889687,42.602325 
	C91.895309,35.544109 97.896126,28.481800 103.898972,21.421221 
	C103.549034,20.933121 103.199089,20.445019 102.849152,19.956917 
	C100.249687,21.481607 97.056976,22.479029 95.152702,24.621588 
	C86.570564,34.277622 78.353645,44.258255 69.851334,54.303535 
	C63.995956,45.686447 58.506424,37.607761 52.497784,28.998297 
z"/>

<path fill="#ffffff" opacity="1.000000" stroke="none" 
	d="
M52.757339,29.263685 
	C58.506424,37.607761 63.995956,45.686447 69.851334,54.303535 
	C78.353645,44.258255 86.570564,34.277622 95.152702,24.621588 
	C97.056976,22.479029 100.249687,21.481607 102.849152,19.956917 
	C103.199089,20.445019 103.549034,20.933121 103.898972,21.421221 
	C97.896126,28.481800 91.895309,35.544109 85.889687,42.602325 
	C82.075584,47.084915 78.103493,51.447033 74.552940,56.129108 
	C73.763733,57.169827 73.790382,59.771263 74.553802,60.905121 
	C84.916748,76.296577 95.480270,91.552948 105.967262,106.861168 
	C106.299545,107.346214 106.343147,108.029037 106.635941,108.999573 
	C99.437042,108.999573 92.351288,109.181442 85.289360,108.852180 
	C83.806694,108.783051 82.027138,107.105980 81.038025,105.707535 
	C74.048119,95.824883 67.232574,85.818954 60.346714,75.862518 
	C59.873974,75.178970 59.282265,74.577690 58.791092,73.992065 
	C50.710110,83.333252 42.801662,92.461586 34.917542,101.610870 
	C34.187157,102.458473 33.668022,103.486160 32.953457,104.349678 
	C30.490685,107.325821 28.106228,110.522568 23.154274,108.510948 
	C34.046329,95.837738 45.000362,83.092407 56.213394,70.045731 
	C45.207794,53.952957 34.148296,37.781376 22.671883,21.000168 
	C30.415627,21.000168 37.351368,20.755997 44.247562,21.170206 
	C45.992500,21.275015 47.748249,23.336159 49.246159,24.763676 
	C50.519119,25.976809 51.427879,27.572096 52.757339,29.263685 
M83.500458,81.999947 
	C71.241035,64.418213 59.002628,46.821724 46.679749,29.284582 
	C45.758018,27.972837 44.319836,26.301409 42.970318,26.150406 
	C39.156124,25.723625 35.263130,26.001102 30.960758,26.001102 
	C38.276089,36.538445 45.145706,46.450710 52.033035,56.350662 
	C62.715439,71.705719 73.386177,87.069099 84.161255,102.358910 
	C84.774315,103.228836 86.262634,103.868103 87.379456,103.926270 
	C91.098015,104.119965 94.832932,103.999565 98.811409,103.999565 
	C93.670639,96.538940 88.844505,89.534958 83.500458,81.999947 
z"/>
<path fill="none" opacity="1.000000" stroke="none" 
	d="
M83.759415,82.265457 
	C88.844505,89.534958 93.670639,96.538940 98.811409,103.999565 
	C94.832932,103.999565 91.098015,104.119965 87.379456,103.926270 
	C86.262634,103.868103 84.774315,103.228836 84.161255,102.358910 
	C73.386177,87.069099 62.715439,71.705719 52.033035,56.350662 
	C45.145706,46.450710 38.276089,36.538445 30.960758,26.001102 
	C35.263130,26.001102 39.156124,25.723625 42.970318,26.150406 
	C44.319836,26.301409 45.758018,27.972837 46.679749,29.284582 
	C59.002628,46.821724 71.241035,64.418213 83.759415,82.265457 
z"/>
</svg>