<svg version="1.1" id="Layer_1" xmlns="http://www.w3.org/2000/svg" xmlns:xlink="http://www.w3.org/1999/xlink" x="0px" y="0px"
	 width="100%" viewBox="0 0 128 128" enable-background="new 0 0 128 128" xml:space="preserve">
<path fill="#ffffff" opacity="1.000000" stroke="none" 
	d="
M19.993189,59.928726 
	C15.092028,49.332996 11.713158,38.698242 9.885509,27.491707 
	C9.079053,22.546780 9.165882,17.661684 8.970089,12.736844 
	C8.857362,9.901381 10.050357,8.918407 12.815845,8.962153 
	C19.979778,9.075473 27.146849,9.025630 34.312298,8.981341 
	C35.965660,8.971123 36.743553,9.127290 37.112648,11.251144 
	C38.496494,19.214161 38.070869,27.424118 40.889801,35.219257 
	C42.400463,39.396671 38.093056,41.830647 36.375988,45.007412 
	C35.635517,46.377369 34.445660,47.582668 33.492939,48.902420 
	C26.072893,59.180992 26.341127,58.943375 33.233196,69.860710 
	C42.202518,84.068489 54.577393,94.173248 69.117027,102.092888 
	C72.012238,103.669899 73.668358,102.274658 75.598656,100.868004 
	C80.700195,97.150398 85.750168,93.361984 90.855682,89.649918 
	C91.513214,89.171844 91.714058,88.028976 93.178352,88.620262 
	C101.101105,91.819496 109.666176,91.582275 117.937256,92.927979 
	C120.281174,93.309349 121.037598,94.260674 121.020058,96.458710 
	C120.964195,103.457336 120.897614,110.458809 121.042282,117.454895 
	C121.114677,120.956093 119.048096,120.933296 116.495041,121.039482 
	C103.077110,121.597504 90.379120,118.226524 78.090042,113.489563 
	C56.941238,105.337517 40.701691,90.776024 27.404221,72.770645 
	C24.552404,68.909157 22.467180,64.481514 19.993189,59.928726 
z"/>
</svg>