<svg version="1.1" id="Layer_1" xmlns="http://www.w3.org/2000/svg" xmlns:xlink="http://www.w3.org/1999/xlink" x="0px" y="0px"
	 width="100%" viewBox="0 0 128 128" enable-background="new 0 0 128 128" xml:space="preserve">

<path fill="#ffffff" opacity="1.000000" stroke="none" 
	d="
M121.000000,31.092880 
	C121.000000,48.405258 120.869835,65.232559 121.052895,82.056450 
	C121.149811,90.963432 116.250610,96.403709 107.112465,96.118462 
	C92.799423,95.671700 78.449387,96.357262 64.140770,95.844521 
	C57.310993,95.599777 51.736755,97.067802 46.723976,101.678825 
	C43.399723,104.736656 39.624622,107.304352 34.999367,110.911995 
	C34.999367,107.167404 35.100552,104.332359 34.973743,101.507538 
	C34.815426,97.980774 33.551449,95.755966 29.305382,95.906136 
	C25.087097,96.055313 20.756424,95.872856 16.628902,95.057205 
	C10.826743,93.910614 9.136824,89.028847 9.083162,83.983002 
	C8.877673,64.660416 8.836303,45.332195 9.088339,26.010708 
	C9.177272,19.192938 12.761121,13.985858 21.318804,13.992118 
	C49.806175,14.012953 78.296921,14.247656 106.779076,13.861729 
	C116.368057,13.731800 121.434380,19.101851 121.005264,28.107786 
	C120.965668,28.938848 121.000000,29.773434 121.000000,31.092880 
z"/>
</svg>