<svg version="1.1" id="Layer_1" xmlns="http://www.w3.org/2000/svg" xmlns:xlink="http://www.w3.org/1999/xlink" x="0px" y="0px"
	 width="100%" viewBox="0 0 128 128" enable-background="new 0 0 128 128" xml:space="preserve">
	 
<path fill="#ffffff" opacity="1.000000" stroke="none" 
	d="
M94.742676,54.754150 
	C100.740150,49.735905 106.480301,44.971813 112.700485,39.809311 
	C112.700485,61.752094 112.700485,83.079536 112.700485,104.704117 
	C81.082169,104.704117 49.363323,104.704117 17.321892,104.704117 
	C17.321892,83.662308 17.321892,62.471252 17.321892,40.303230 
	C20.703226,42.779587 23.720970,44.792263 26.519518,47.073811 
	C37.886795,56.341084 49.378853,65.471497 60.408722,75.127762 
	C64.335648,78.565643 67.232574,77.589882 70.391159,75.019897 
	C78.489014,68.431046 86.462280,61.689064 94.742676,54.754150 
z"/>
<path fill="#ffffff" opacity="1.000000" stroke="none" 
	d="
M101.558807,33.000000 
	C103.146790,33.000000 104.288612,33.000000 106.327301,33.000000 
	C92.237457,44.592449 78.753159,55.686687 65.008560,66.995079 
	C51.597275,55.970448 37.978897,44.775578 23.654100,33.000000 
	C50.014694,33.000000 75.563667,33.000000 101.558807,33.000000 
z"/>
</svg>